<mxfile host="app.diagrams.net" agent="Mozilla/5.0 (Windows NT 10.0; Win64; x64) AppleWebKit/537.36 (KHTML, like Gecko) Chrome/128.0.0.0 Safari/537.36" version="24.7.10">
  <diagram name="Page-1" id="3Vh9mr0sEWwDWE9nLSAD">
    <mxGraphModel dx="283" dy="-21" grid="0" gridSize="10" guides="1" tooltips="1" connect="1" arrows="1" fold="1" page="0" pageScale="1" pageWidth="850" pageHeight="1100" math="0" shadow="0">
      <root>
        <mxCell id="0" />
        <mxCell id="1" parent="0" />
        <mxCell id="_SEhdjt_zC7VoHPrVBOt-1" value="Docker Compose (yml)" style="whiteSpace=wrap;html=1;align=left;verticalAlign=top;fillColor=#f8cecc;strokeColor=#b85450;" vertex="1" parent="1">
          <mxGeometry x="771" y="549" width="229" height="124" as="geometry" />
        </mxCell>
        <mxCell id="_SEhdjt_zC7VoHPrVBOt-2" value="&lt;div&gt;--mock-all-data&lt;/div&gt;&lt;div&gt;--mock-over-temperature&lt;/div&gt;&lt;div&gt;--heartbeat-ignore&lt;/div&gt;&lt;div&gt;...&lt;/div&gt;" style="whiteSpace=wrap;html=1;align=left;fillColor=#f5f5f5;fontColor=#333333;strokeColor=#666666;" vertex="1" parent="1">
          <mxGeometry x="778" y="594" width="206" height="68" as="geometry" />
        </mxCell>
        <mxCell id="_SEhdjt_zC7VoHPrVBOt-3" value="command:" style="whiteSpace=wrap;html=1;fillColor=#e1d5e7;strokeColor=#9673a6;" vertex="1" parent="1">
          <mxGeometry x="915" y="556" width="63" height="22" as="geometry" />
        </mxCell>
        <mxCell id="_SEhdjt_zC7VoHPrVBOt-4" style="edgeStyle=none;curved=1;rounded=0;orthogonalLoop=1;jettySize=auto;html=1;exitX=0.5;exitY=1;exitDx=0;exitDy=0;entryX=0.815;entryY=0.024;entryDx=0;entryDy=0;fontSize=12;startSize=8;endSize=8;entryPerimeter=0;" edge="1" parent="1" source="_SEhdjt_zC7VoHPrVBOt-3" target="_SEhdjt_zC7VoHPrVBOt-2">
          <mxGeometry relative="1" as="geometry" />
        </mxCell>
        <mxCell id="_SEhdjt_zC7VoHPrVBOt-5" value="&lt;b&gt;Class:&lt;/b&gt; 3DIntegrate (py)" style="whiteSpace=wrap;html=1;align=left;verticalAlign=top;fillColor=#f8cecc;strokeColor=#b85450;" vertex="1" parent="1">
          <mxGeometry x="591" y="689" width="409" height="110" as="geometry" />
        </mxCell>
        <mxCell id="_SEhdjt_zC7VoHPrVBOt-10" style="edgeStyle=none;curved=1;rounded=0;orthogonalLoop=1;jettySize=auto;html=1;exitX=1;exitY=0.5;exitDx=0;exitDy=0;entryX=0;entryY=0.5;entryDx=0;entryDy=0;fontSize=12;startSize=8;endSize=8;" edge="1" parent="1" source="_SEhdjt_zC7VoHPrVBOt-6" target="_SEhdjt_zC7VoHPrVBOt-1">
          <mxGeometry relative="1" as="geometry" />
        </mxCell>
        <mxCell id="_SEhdjt_zC7VoHPrVBOt-6" value="systemd" style="whiteSpace=wrap;html=1;align=left;verticalAlign=top;fillColor=#dae8fc;strokeColor=#6c8ebf;" vertex="1" parent="1">
          <mxGeometry x="592" y="573" width="150" height="76" as="geometry" />
        </mxCell>
        <mxCell id="_SEhdjt_zC7VoHPrVBOt-9" style="edgeStyle=none;curved=1;rounded=0;orthogonalLoop=1;jettySize=auto;html=1;exitX=0.5;exitY=1;exitDx=0;exitDy=0;entryX=0.75;entryY=0;entryDx=0;entryDy=0;fontSize=12;startSize=8;endSize=8;" edge="1" parent="1" source="_SEhdjt_zC7VoHPrVBOt-7" target="_SEhdjt_zC7VoHPrVBOt-8">
          <mxGeometry relative="1" as="geometry" />
        </mxCell>
        <mxCell id="_SEhdjt_zC7VoHPrVBOt-7" value="ExecStart:" style="whiteSpace=wrap;html=1;fillColor=#e1d5e7;strokeColor=#9673a6;" vertex="1" parent="1">
          <mxGeometry x="666" y="578" width="63" height="22" as="geometry" />
        </mxCell>
        <mxCell id="_SEhdjt_zC7VoHPrVBOt-8" value="docker-compose up" style="whiteSpace=wrap;html=1;fillColor=#f5f5f5;fontColor=#333333;strokeColor=#666666;" vertex="1" parent="1">
          <mxGeometry x="607" y="616.5" width="120" height="23" as="geometry" />
        </mxCell>
        <mxCell id="_SEhdjt_zC7VoHPrVBOt-12" value="" style="shape=image;verticalLabelPosition=bottom;labelBackgroundColor=default;verticalAlign=top;aspect=fixed;imageAspect=0;image=data:image/png,iVBORw0KGgoAAAANSUhEUgAAATMAAACbCAIAAACBAus+AAAgAElEQVR4Ae19a1MbSbrm/J6s0u0I0CWELkgKJIQAYUAIEQIhLhIIhJAQAkkIG4PB7rbb2G1oDzRGNhjcuA2GxmM3Nm4bPD7Tvbc4H3Y/zZdzYmN3NmJndvecOWcmdmM2sm4IqapA3IwhCUJRKmW9+bxP5pP5Vqbq1a8w9IcYQAycPQZ+dfYgIUSIAcQAhpSJOgFi4CwygJR5FlsFYUIMIGWiPoAYOIsMIGWexVY5Oiah2tkx+iBQBY5u6iAWtO0TV2PthrxTqu4gkD73MizKrLaLt52CfR0DANRWiV+FJb9E/+7nsMgFjrlVQG3lP7+sbD6w2VzL7+vgCRU4BZyS0oFbyxtjUZ9RdphGqRx5vfTiw9KLD4sb005RpgUACsr6UvdX3sMCq19VEg0k0tb5xp/Ozd+uUeInxNtFM3sEZUqEj/vEX+rxonxcl4dLDiyhA1Kcaw/OtfwBYRx7sZPGCcRVfY9fX2vT4YdtEZFMo1LrVLbhe6zKlAdubKz0OUyFap2qUCGiawGgwHZ1PTXRIafPHDt1F8ogpUwgEYw2i9+FJT94BL2O3TkTCPEep+jHsORDUDxXhRemkQ5kwtU+Ubsgc0xlpQ/kKb6eavrjG98//tr85Y2WP90oJIsBqWz8luu/v+n4t1dNH4bUehxaA86qP+/4//ahc/d/3lyUVnVGFTzl2e1XVPxh+dLD6bb/vWxtq7f90+u2/9QPexgA0skl/28ThvUnbX9+0/pfbhsr6RmD1Q6GYW3jbX+6bbn3bfO/bHn/6UF5p4piAxQobn7l+sdXvn955fn7Ea2J1y8A8mee+t+2UrNN40jLn7/SkD5y2mfjjbxE4rr3aH7YSNTIEAVk9sDEs29Xtx8//3Hy7lWbksYpsTSNLtxfefdo+dlon1OedhXQRe+wKpPjPGw4eeDG+hOvdk+XAFJn/8Kb2a+Dau4WZHCiA4YBqEwAgMsp+W27sFmFW/XCBwEJGc0CAKrskp9ahQ1K3KIRTHWJ50oI5RQKX/RKPkbEP/dJ/r5X8rFX8jEocnLzDgCou+z5vytVQxWy+ubyX37wksoEAPeMtvyvlDVQWlBdbdxc8/3WL4Z4pJIKY77NX/Mvr2oSxnybMd+mEQl57HOU57RfUfGH144vKpRzS77fX9M6vDV/fF3lp5X5x0Xb1Usyu93825cd/zEoJfhhx0kq8183HNMuWVWZ9vGi708T2gJoBw/d9v5prix6SVZVaXj13LfTzucXvzJZ7bPyRjaqqf/5o7FGpoHJg+L+1YdTQ+VGvcZc1znxYjJWRfglsCTWH9xLVJqL9bbOofmtay1K5sJsZYLSK1Nr7+bX3z/e2F5Yeze/9m5++cuKtHYBwBxIbQ/V7wlogcw7urqz8DBpSCvJ1IIOuBgglYlf8UumTYTqAHDXU3MmAPhwp/iOjhoCTTbxRxe8/wQC3CDDTTrhep+4X4mbZPBfys07ANKJx/5/FyB6J8Djkx20MgserPjWnZT9ypj7r3e0DNBco77s8gCw2wcVFX94Xl4LQPO1lg8dQlBg/GXHHhNQc+Y/hKEaMQxzDTf/9a4OnuawQyrzr1/ryFFD5K75yw/l2ffbntHdGAGyl3X/zK/MbPs8eDAMK7/86tuhaoZG8sB2dXN62JExuhFC2orVUPzrQsvz427mQhZlihRqvVFbPTK5kfKajFq9UVukSr+LAUDjvb9zrSWfMUIeCAvUBZI9cs0ogN5mM0Ap83pAPFFEtRCzAgQAfj0g+V2EmBWJufFnt4Bp3YNHswDIUqsdr9yU/eZrVE8FQPFkw/9/33f85R38/+t7/9++0e/et2T14Gz06WfYejy7fTZl1saFlDI/dAhJs2XRxr9NG6RQmex2qGiWicwLVdcChSZihCqqtX542vrPbwm/tv1MdHoIZe5G/rR9HjxQmVd+zFamxDYyufZ2emZ26PKQp8YoJkACUNG7tLOwTsx+cDLcXrzpFdAjbLYySVq4zhOTMFTmWGtBerug48MxsL8yJ83UrAjnxrRl8ZyU+fA5lzK9r3xEvEpGrWpKFaw9mN9DDmWy2D+UMlnsZCiTgQeE6vVN3y8D6tpi6FrsZuuxKHPXPhwp2PFgGFY29Orby3amMHMgLrTZfQOh0bn7a2+/9BsIIVX0Lm0mPcTspydeVXlMeS4Fcp0nDGp90zvXWnaNMNbQQa4M/ArHcSJq5YxmvzFSc51UipceUplwZeUjMRcBgIcnfGnRbMfrZirOyVcV2DVpyrRX/p+cdk2yyhNRH4t9fmWmR7N/uaPFqWiWxQ6nMjUl/3mn7irBFQCg80vvHmWy4BTffOj/991UtN99y/ffRhRkQ8IVIHpOZpqWyy+ygL736cItHxN6EILBhdICCb1Wpwk+WZzolEC/zIHU+8suinOxsthQuBuIAm3uK0CgMvLkbcyeGbjiojyxkOpFjBfogJ8BlhWg1N4VoJ12YYsKNxcK7nZKFq27/OYyZ+Le8da/LFhdMlxmNr37gVEmXFn51ye2aHnBpUr9Dyvt5IoLiRgYLb/fdi/UyWzG/ArVrmK5/MkuT64AZdvnV+YfF2xXK2U1dvNvf7NnBSjbDqcyhZqNTd8/XNE6imWtPtvfr7ftUSabX1UD7r+uVCVsMofL+g9vWp/XUf5yKJOPN4FtfGblG0d+WkuBPNdX76dvhstNBrWh2jexOTvsIEYcuAL0cGbMXlpcVOaNP/zpRkfafb6kdWT9ZbLJDHdH1IVSWtg8c6bAOnJ/bdqZVjUcFwqah7/fnp8d0NNxMlcLovPpDEBlQvroXZPfNAujzrRdExEeqhdvhiQ7QXGqRqBNX1XPaddErV1/1v63bf+/Pa96fLeVmQdAnuzG7YY/vOn486umj1ep3QUKEhAHRlz/423H3z50pvds8tPsV8BWntU+vzJ3BgxrS8SuyYTxErNrwoGTVTkYhhnry39ZbfvXt22/nzJfHfWk42fHKc6//EX9f930/fOGe7NXqaI7MZd9Vr9o3jRNd1/P3OzSinfFKdC1RCefz61tL6y+2rNrIrV4xhanV96llp+NxRqV6e0LhAbf5NfL7x5v7CxuPO3QU9a4lClQOPvm3tzpK2dWIig80vrY463ZyR4N7VR226Ez2QxQysz+4NjPABzXaCQyIWgbb/uf46pD2AcVZf9ErBWRK0bEq72fHssPYTDjEnI/c6d9//k548Kz9hZILG0TL1KLj7zELtcpwFM03Jr8/vVX8TpZmrZPod5zXMUpKRMAvFAjLdFJLcbChe86/kM3tTORE7NALLaSC0W7r1LZ8Y3EpDKZtdmcsJ21wgCIleVtNnqiO2l4svImW1H+ob91dNLwPkf7p6ZM5dOX8Gs9/++ntt9PmRyS3UDr7LB2npR5dlhFSA7HwCkp83Dg0FWIgQvLAFLmhW165PiZZgAp80w3DwJ3YRlAyrywTY8cP9MMIGWe6eZB4C4sA0iZF7bpkeNnmgGkzDPdPAjchWUAKfPCNj1y/EwzcHrKBABcqhA/dgq0x/etnTNNLQKHGDgCA6epTLzJKdnyCS17lXlyOfgOkQPuCEzufykAqtapnXEf9YTX/hcQJUDVjdTyeAZpB7z2NIt9LjhPk5Oj1HV6yuRCCU4sB9/hcsBx4Tz6eaTMo3N4cSyckjI9LpiWFmam7RAaM+bMnJ4mO5UccBnND6wj07NfBG+/nJsdtNrHp569+iJYRmblAFKLZ3Th/tOt1JPl4bCd+Xo9kJgbhlNTy1up5ZWxuFtFPBCTrkwAhIaepYdzV0z0g2YZlcJH82pupjZ2yNSvVALYqTCZMxKw5bzjwgmArn1m51q4IzbzMrXym9tjnTq6UlY7GIZZh17OXuv3TTxPrW7Cp8YU9CNg+WUto/OTy28IvxpVxJMlXDgBMHbN7Qw3Us/umOPrqVEX6SanfTa/yEsuWg6+U1KmVAJ0+XhxmShdmSDHHHwYhp1ODrgMkcAe/2ymufRSYPrN3UG3senO7LNbFTAngLAkvv5oZtxeajZURcaWXw83yokcAgJzbPXR7A2H1VxU4R+af3ujQ0ec341mhebEndWngRK+J86ARAWzYLV8nVq+U0dmAymUERnD2HPeceOEypz99XhDudlwKXxt+f2NDpg1EwB2O6QyHy7NdNaWFpW4Q7/emh1rJHIgiKrGNmfvDdnLLUVl7cn5N6PNMDLnxsmnTDb7nHhgLRcsB98pKZPs62LTXmXmmIMPw7DTyQHHosz5KwYALIMbo815IL9zfGPKASVi7HywPewWkeXNsfXUiJPo8Qb/7PbVRpg9BMMwpfNKvMNG5BCglAlEZd0P3k6ES5l0WGRJ1tfs+zeunHdQmew4oTJvdlE5bE0Da/PjTQQecyDFnjvPOvRy/rqHhCdw3plfHCEzj6UjtCR+mL1Sy5xhw8mnzGz7XH4xVVyoHHyfUpkk4wfPWoJh2OnkgGO6AoWQpcd/A1NEwtxzuz1b071E5p7LOM9YI6PZx+tElrrvb9kO9sw3W49nz3nHpkwSJ1TmaDOVOAvivN1BZL5mt0NFs7TqgLK60VdLplmQVyVHH7xIPSfS7a3vMNEpHI+yVqr2iWaz7PPn8mNovCAHn5kyMQw7hRxwGW3P3eMPo8yb4QqtOTC6sjlUf6Dsj2w9nj3nHTdOHmWy586D94G0chg2gLAu9vT1eE+dgQitHSMvjkWZu/bhSMeOhylzcQ5g7rxT8zYjmiXrPficCcAp5YDLiJq4ezxXNAvPX22UkA6qGseHA5V7olmA63qWFh5eLT5ARjlw6frc3l0Trpx33Dizo1k3Hc2y585jV2Zh71cbsw1SuBoEAG4b3tyjTBacipbJnevtxL0owC+NvrkfryA5YbfPm8sPw7ALlYPvNOZMAIA8D6dWgPwiez48ltGxXC7KPI0ccEDmu7Y32z93jxeUxNcezYzX0CtAVxroFaD483liBUhv67r8+O2NdpiTbs/arMQee/LT9Xbq3o9ncAT6ga9/+K6n2gJXg5Tkrzmw57zjxgmVOXsfrgDpL4WvfbdnBYg1dx67cgTO+PdbN/sbjXqztWl87PGPe5SZhRPDsKKe5fnUrTqr2VibvLnym4FqarRit0+sSLHigexdsBx8p6NMmOud3DWh9k76xOOF9EJ8Lrsmp5ADDuS5Yot7cr1x9XjYXchdk++3Uk+eXk3fNZFaGkceTS2/5do1wTBM0fbto+XblcQUxKdMoKiMP5pe3V568YFRAqw3K+cdF05y12S0xzdA75oUMbsmbHYy7jPTsSnsw+OPfny4+uruzXBDfIXBQ4w7bDhFxvrhh9883UotfTfUVZlHb5ixKpPiM8svEgC4YDn4TkOZ6U2LjrMZoH7Jh/wNH+r1Xi0dU2SXz/UMpczmw2RFy7UuVP64GEDKPC4mD28HkL/kQ+5YUq/q9F/yObxp4kpamehHDY5I5KlejpR5qnR/ksqQMj8J7UesFCnziASiyxEDJ8IAUuaJ0IqMIgaOyABS5hEJRJcjBk6EgZNVpkwmOxHUyChi4LwzgJR53lsY+fd5MoCU+Xm2G0J93hlAyjzvLYz8+zwZQMr8PNsNoT7vDCBlnvcWRv59ngycH2UKipsijQYAgKC4OdJQBOgvT2e3CwAFVYHkEPGXiEe7W+1F+32tHH7ZWt8wEHVdnJScZ99fg3uAbMRk0ms5vq8ZZ3eYT3Lm/ChTUxduK4GJP3T1va38+XUIZbZXygsKCuQqg93fH2sr3fd7qme/px5vBzr7/gol+QUFBQW6uh6kzFzb/nT2M4G0vCORGBxMDibgH3ngMXM+EU7OmW0WAekOMDYloi4dMccCkbLc3dUbS8SjPd5aA/nUEjC4Y0lqjqUG6c5KKczQJbcHk60llB21MxJrMpI2da5of1N1lS8ci/WH2uv01NPGcK5uq7Z6uqOxWCTgLpERued4WAUiVYW7q7c/Fuvrbq0pkpIgVbXhRJuZeZJL6+yLt5iIh7BZ8cPRig0PV71c/sLAgZUftTMSbHR4owPddp3BFR6I+qvVxJPZ0F9fjdUdiMZi0YCnTME7swEev8RqW1NnCJoJ+ZzFBWkBEZBXBfcqk6ddWPETT58V1fp6ovHBwThsL0Pep/9N9PMwZwJcnC8vaerrqFTJ5XJLc7S9UinPoztudv9LVyYQyiyeyKC/Ig8qDdc6I/1+u0GlUOrKmsMxn5V4UlkkVcjlcmtzLOopkRN/+WKi5/EpMx7x1RhVysLiukCs31NM5N2BPTXa5bRqlCp9tX8g4SXsZyMkzwAg0Dh74wGXWa1U6St90YHWEvjkMQDqukisuZgaEQodoUSbhbDPjp9UZjYezno5/WW3D9TOyICvQqOtDcSC9SaVxRMdcOshn4S/AZdVq1QVVfqiCX9FPlelvH4Jij0D/R21Zq1KqSn1hGPe0t0n2g6uTK72xTCs0BGKd9bqlTK5Sl/j6ws5Ya7DT/t3HpQJG1Vo8YadhQAAkdUXriPTSXExS/aYQXKGTSZjPR6rAvZyAJS1oZjbQI2XiuruhMfEGMmO7njGZp0rmmg248TQLjB5EpE6Nd1T/TbqaSx9Y3/UVcTYzz4AQFHTPdhKz+2aut6Y20DgBDpXZKDJSGS4lNcEE14rzNPHg58VT3aN6WfY/GXnByoz7FABoK2PeK0iIC7rSLaWwKELKrOrkkp3pK4LJ5pNJCfpFTHHALD7xRQgD+Do2aBnTuaiTHb8GIYZGgf6GvUHSWXI1HvSB+dFmcrakK8MzhuFjl6fVZgW7WQzSPaYjksqubKsNdbvNtBhLVDXR5KUYmFcnEy2WZjWYuupfHMm03tAnq6sQl9AK5OJotOj32yQhNLU9ZHdkUIOQ2EKD17kikYbi3AA8isDgx1lVLTMiR9Gs3RvZvDAKlQ1PcQtAHyJeYrTeGPzl90+mzLbSuCwAZXptVJZPyF+r5Xhk9VlVr8wDJPqa73BvoE4gXUwydw1QBcOHM0C7vYV6Zw9iXgk0N7cUFthUPD3H1bkx37yPChT4+ghbi6JSRDeZQ4mwk5NWifLYI3sMUQnxw3uaKytREQUJlpuwFNKBqxk1Er1KtgDstZm+edMRglM7Uy95JmjKBMIDO6BaL0O5FX4B/0V1P0n7Hns+NOVyeCBTgmksl1380geyAJs/rLbP0Zlsvsl0Lv7Bzqq9Sp4UyEvcfcdQZns/GAYJszXmCuqne6O3kS80wbzOX3av/OgTIFUZqgPBWq1crm82BUK2DVymZRnbE5XCK6tjyT85dSco6wNJVrM1BQqzFOo8qlszrATF2XumgAgtfmT/goyaxZudMciTjXZnKxKSK8Xw7ADKJM9moVgAF7sifXW6a2+RNcl6uaNiGbZ8bPi4e95bP6y88OvzD3RrMfEs5vF6Vf+pUCy3UosHAAA9I39e5Qpq+rOXAFibxcufgDABSKxiF6Nk1cHkkT8xc/PSX96HpQJAG5qjsDVVYCXtPS5dPssrKUrBACVI5TsrqYyL2qdkXig3qxWKDQWd2jPigWQVwcHu516pVwuV+RRc6myOpgIuUs0SpXR3hWLNuqpX0NgVUJ6vQdTJq6pC8cDLhO9AtRCrACRfUJobo4HOztj3ZdkdK4zYgWLFT8rHv6+le0vuYKSbZ9fmdGug64AcfqFG5oGYl2OYrgwZ3H5evcqU1TSNhhttijhDkpBnpgQGGu7cOIHolLvYKStUq+SyxS6S77+/ka4gMXPz0l/ej6UqbAH/eXwlzdUtSF/mWQfTjMUIq8OJnudajKgFakqPIFILBGL9vjqivPpcZQYzqUGZ2dffHBoaIgZs4FAXtroh7sake7mSo2Ybk5WJWTUu++cCSsVqSqaunoHYrG+YBu9a0L2CSAqaUskk8Ea8jeI6JPs+Fnx8PctANj8ZeOHX5ne6tLGg+2a0C6w+JVvqOsI9cfj0WBbpdUZYvgnp1lVeUuwP5GEf8FqOWx9rnaBfLK1r0Be0uAPDyQGB+PRULsT7Zrw9w306efNADkSeUt379U/b39OF/15mDNPlzFU20EZoJRJr80e9DJUjmAAKRN1hJNiACnzKMwiZR6FPXQtYuCkGEDKPClmkV3EwFEYQMo8CnvoWsTASTGAlHlSzCK7iIGjMICUeRT20LWIgZNiACnzpJhFdhEDR2EAKfMo7KFrEQMnxQBS5kkxi+wiBo7CAFLmUdhD1yIGToqBi6tMoBVuB0XV9HfQT4rgI9itHHm99OLD0osPixvTzqzkKQAUlPWl7q+8hwVWv6o8q46Aqhup5XHLWYV3hPY52UuRMvd5MOVk6ee1LpJpVGqdyjZ8j1WZ8sCNjZU+h6lQrVMVKtIfeua1etofImUejvFf4ThnjrnDWUy/6nRy52EYZndI3tYLYx7xdli80SKsp/PHAiHe4xT9GJZ8CIrnqvBCYuQGRaKdPskv0b9j/n9uE6qIDF2X/ZJpE0VIpV2yU089Rc1qHwA87pPM2gST7eKdkHjZKTCkPTWWzgNzDGT2wMSzb1e3Hz//cfLuVZuSGheAxNI0unB/5d2j5WejfU55mh2gi95hVSbHeaau9AMgtXhGF+4/3Uo9WR4O22UkD+ahqbWpWvqhObx8dPr5ZI2YeIqKA4916OXstX7fxPPU6ibEr+Ab10DNzdTGDjntU5P/VJh8Zo3VX2AdmZ79Inj75dzsoNU+PvXs1RfBMiLXka59ZudauCM28zK18pvbY526rAgi3dnzcXxO5ky7Q7ITEA3p8RIVPu4Tv3UJiKyToMou+alV2KDELRrBVJd4roTodkJQLMNNJaLtoMgnw00y3JQHiB6A8yiTzT5U5pZX2FmIl+qECz2SuZJ9hrni/tWHU0PlRr3GXNc58WIyVkU8YSiwJNYf3EtUmov1ts6h+a1rLUqme2UrE5RemVp7N7/+/vHG9sLau/m1d/PLX1Zwh4sACEvi649mxu2lZkNVZGz59XAjzKYBQHno8VayjsrbUNy/On/TC59yBZx4rEMvHy7NdNaWFpW4Q7/emh1r5MnTCyQqrd6obfk6tXynTm+Ex4Uygmd2+1CZz2aaSy8Fpt/cHXQbm+7MPrtVAfFAZc7+eryh3Gy4FL62/P5Gh4bh57wenB9lfmwQkBlGhAbRx4DQRsyBw53iO3SKA5NN/NFFzYGwX2bdZwLAp0xW+3GfZNFKqdFZJ95y7KNM29XN6WFHRgIoAMyB1Fashpp/dKHl+XE30+FYlClSqPVGbfXI5EbKayJ6fJGKTyHA2Plge9hNPSdpjq2nRpyEMnFrcmNu1EWoxdj54P1oM/y9Ux481qGX89c9JM8C5535xRET94hAupAdzXLZh8qcv2IAwDK4MdqcB/I7xzemHBAcVObNLkqNpoG1+fEmnhx8DHWf9cH5UeZbB50CL08QKBVoCWVeD0h+F5F87KX+f3YLGFXkqkxW+3Gf5FsTpaj06JerT0hsI5Nrb6dnZocuD3lqjGQOBAAqepd2FtaJ2Q9OhtuLN71MHqNsZVI9/sDRLGF/V/ma7iXGvqDy+uzylzBkVEdur881EolLePDAaPZKLQVAWd3oq+VPIAp1nrUCxGWfTZnfwGGMUOZoM5UNFOK/3XFm76u5mj7X8+dQmQwFAODXA5JJMxGv0lHr7qc5zpmMMnctEPeZOSkTwzBxoc3uGwiNzt1fe/uln8wfW9G7tJn0ELMfGfWpqF4IezaHArnOM/CYAx5lAmFd/Pvf9Fbg8vbUwmSQuv+EIwU7nnRlMvb5DziUyWIfKTOdyXOuzOFO8TdGak6TSvHStKz4QCt8v3fXBADQ2ypZsBL3ogA0OCWv7FR0CleA6DmZoY9cATq4MgHAhdICCf0LAprgk8WJTuK+zhxIvb/sorJ7iZXFhsLdXOZAm/MKkLBAXSDZjasBRzRLBK7C6rE338QcDRPvb3ZpSdeIaJMdz2GUeen63N5dEy77/MrcG826UTTL9MPDHJzq2iyLcuAK0E67sEWFmwsFdzsli4TqqP4nE65FxGM6OKMWS6l+XGITf+wU+Qpxq174XVhym75HPSZl5rm+ej99M1xuMqgN1b6JzdlhB/ErDHBF5OHMmL20uKjMG3/4040OSiRQPJLWkfWXySYz3B1RF0ppYXPNmUDmu7a6s/AwaaDvAAEQlMTXHs2M19ArQFcadvOpiuq/fjj76MuV73xaaggjV4BY8RxGmfqBr3/4rqfaAleAlGQGUHZ/+ZU5ex+uAOkvha99h1aADiPGPdd8WmXCbi3CQ/XizZBkJyhO1Qi06bsRAHfZxZthuH3C7I4AAe6vE73sEW8HxFNlOBndUbsyLMqHa7MHnzMxDBPoWqKTz+fWthdWX+3ZNZFaPGOL0yvvUsvPxmKNyj04hQbf5NfL7x5v7CxuPO3Q0/rhinLzXLHFrdnJnvRc2NSuyfdbqSdPr9K7JtQIJW29uraz+CCR/gOEsDwbnsMoEygq44+mV7eXXnxIjbroSlns8ytztMc3QO+aFKFdkz06y/3NqSkzd2joimNjgNrFIfdvqNd7tfTcfvRq6BWg3V8ZOrrNs2/hnNxnnn2izzFCQO7ikGtX1KuaZxcnVypoZe6uiuVq4XMsj5T5ObbaxcKMlHn87Y2i2ePnFFm8GAygOfNitDPy8nNjACnzc2sxhPdiMHCyyrwYHCIvEQPHzwBS5vFziiwiBo7OAFLm0TlEFhADx88AUubxc4osIgaOzgBS5tE5RBYQA8fPAFLm8XOKLCIGjs7Ap1Smy0kl4/m5T9R+fF+zPDopyAJi4JMz8CmVKZEAXT6u0wjXkTI/eUdAAM4YA6ekTNYcdiQVQCZczVImkOBXPOKtsOR3YfEPLUIX/cQznx2ps3/hzezXQTX9XOIZoxrBQQzkwMBpKBMA9hx2JExWZZZXi3fahHVy3KgUJJvFGzUwx89+dryje58YzoEGVBQxcMYYOB1l4nw57NjmzHqnZLNOkJGFCQA+OxiGZWTZOGNUI/lgt1kAABGDSURBVDiIgRwYOCVl8uWwY1OmVCP6oVey2S6acghDOlxKBKhkxi2uXHg5OI2KIgbOPAOnp0zOHHZsysQwTJqHt5QKx53iV72SpTKYp4c/F96ZpxoBRAzkwMDJ/noCCYSMQjlz2BUIV/auAAEAREIgpXPhGG3inz2CPDqzM5cdDMNwUZ5YSKXJyYEDVBQxcPYYOJ05kzeHnVAwG4FZYYvycV0+ng+TyeGdTZJNt7BOgevlggGP+G2dgMgxx2unoHn4++352QE9Wps9e/0MIcqVgdNQ5n457EBpqWgtKPm5T/Jzn3iQSBMulAlutorf9RK7Js2i3V0Tnlx40vrY48yccbnSgcojBs4IA6ekzDPiLYKBGPhcGEDK/FxaCuG8WAwgZV6s9kbefi4MIGV+Li2FcF4sBpAyL1Z7I28/FwaQMj+XlkI4LxYDJ6tMlAn6YvUm5O3xMYCUeXxcIkuIgeNjACnz+LhElhADx8cAUubxcYksIQaOjwGkzOPjEllCDBwfA0iZx8clsoQYOD4Gzo8yBcVNkUYDAEBQ3BxpKAK8T5wAkarc3dnbH4tFe7wOQz79xBkPsUDfMBB1pf9kOk9h+CX+HMvzWzu5Tz8VTgDERbX+3tjg0NBQMtZk4G2vk3P/zFo+P8rU1IXbSkQYhunqe1tLhDyMA4BrnL2JbpdZo1TqKlp74+1l+TzlyY9y7cG5lt8XwAkV+FQ4gbTcn+xxFSsKCgoK8qVCpMy9DXwelAmk5R2JxOBgcjAB/8gDjxmmQWD9A0BW051ss1DqlVe2h1wGnOgZQKQsd3f1xhLxaI+31pBHnjS4Y8nkUNpfsrOSTIDCbp+7PLt9tTMSbHR4owPddp3BFR6I+qvVxPOoBVWBpK/G6g5EY7FowFOmoLPystqBo5Ir2t9UXeULx2L9ofY6vZR6jhyI1bamzhA0E/I5iwt4/QJAbg8mW0tgVjQMw9TOSKzJSB5z2mfjjbyE6xXIq4JJr4X2aD/7qgp3F4xx+rpba4qo7DMcvHHVCAMZaVGtrycaHxyMQ34MTE5GNvwAQP7bqq2e7mgsFgm4S2R0bMVthwUnT7vwQD0XysTF+fKSpr6OSpVcLrc0R9srlfI8EWdyAwBUjvCgx5RZAABc64z0++0GlUKpK2sOx3xWKfFwqVQhl8utzbGop0RO/OWLSSWzMgtE7OU57audkQFfhUZbG4gF600qiyc64NbDHA6wZ0QDLqtWqSqq9EUT/go4t3PZIXtAPOKrMaqUhcV1gVi/p1gE7QiKPQP9HbVmrUqpKfWEY95SPr/4lclmn503VnIgfo0jTIyhyeQgOZgm+hvJ5911riibfYHG2RsPuMxqpUpf6YsOtJZIoB0O3rjqxTCs0BGKd9bqlTK5Sl/j6ws5dTx8Uvx3Oa0apUpf7R9IeIn+wG2HHSdXu/DgxDDsPCgTkiu0eMPOQpinxOoL16l4QyNuZSprQzG3gVKsoro74TEx9OUa9WWXB4DdPuxhYYcKAG19xGsVAXFZR7K1BE6aUJldlQUkBnVdONFsIuZSdjtkD0g0m8lRQ2DyJCJ12dl34ejToOfxi1+Z2fa5/GKqyDgAAqlMLpfr60JJ/yU4mMrlijwyT6LOFWWzr6jpHmy1UHO4pq435jZQymTjLaO69LeGxoG+Rr1gb/fgwk/y77flkRb0jf1RVxF5zGGHHecB2yUd5zlSprI25CuD80Oho9dn5b9pYZQpsLQQY3ci4SsTw7lFXR9hhvFEIpFMtlmYVsxWWgaVGW+zy3PZZ1NmW4mAUqbXCm+eMQyTVwWSXis8zY0TRpu06kCerqxCTwauUn2tN9g3ECfD/SQTncL+nbVSxa/MbPs8eDI4SX/LGc1m4Sfs746YkAeiXbh4S68l41ikc/Yk4pFAe3NDbYVBQfYTLvykMtvoESE9que2w4KTVGY2bxnYMt6ehzlT4+ghbi6JyAjeZQ4mwk7N3nEx3W1GmUCUL5fLdbWBZEc5rcwBTykZsJJRK6UK1h6cbjP7mK3Hq+sjLPa5ehjZMziUyWInowcwkIBA7+4f6KjWq2BQLi9x9x2LMnftw5GCHQ9TJvtgX2UylxyjMmFS4nyNuaLa6e7oTcQ7bXLYshz4eZTJbWd/ZTJ+8R+cB2UKpDJDfShQq5XL5cWuUMCukcukzFyX7X/GCpCiunuQHINhtJloMVNRkzBPocoXM5eDohx3TbLKE1ETi31+Ze6JZj0mOGVy40yfM3eR518KJNutxI03AEDf2L9HmSw4pTZ/0l9B3IsC3OiORZxq0hq7fW48DIbsg1yUyR4lcvGWXRd5BgBcIBKL6FUceXUgScZZHPi5lMlthx0n14jJhZM8fx6UCQBuao64dDDpXklLn0uXubSTQQG1axJ0mTUKpc7aHE502mTE2AlXMuKBerNaodBY3CFqxYVqV3l1cLDbqVeSt0UZNrPfgqzy5MpNtn2uHkb2jGgX+wpQth2uHgBwQ9NArMtRDBe2LC5f715lZuHEMExZHUyE3CUapcpo74pFG/XUOjaHMvl4y2aG5pNjbZaOZpkLYXvVheMBl4leAWphVoAy7zPhXQBzYcYBAKJS72CkrVKvkssUuku+fmLhCXYb1nbnVianHVacXO2SAS/j7flQpsIe9JdLAACq2pC/TMLZNozzxDcNunr747FoqN1pKqCbE4hUFZ5AJJaIRXt8dcXp30AAQGpwdvbF4c54+pzD2Mw4YC3Pap9fmd7q0kaWXRN2nKzKwTAs31DXEeqPx6PBtkqrM5SOnx2nQF7a6Ie7FJHu5kqNmL414LLP6lcGIRlvDz5nwkFTpKpo6uodiMX6gm3puya5KBPDMIG8pMEfHkgMDsZhw6ftmrDwyaXMfexk4by4ysxo8nPzluwZ3tLde91z4xpyZF8GzsOcua+Tn2kBSpn02uxn6gWCfTgGkDIPx9tpXIWUeRosn9U6kDLPassgXBebAaTMi93+yPuzygBS5lltGYTrYjOAlHmx2x95f1YZQMo8qy2DcF1sBpAyL3b7I+/PKgNImWe1ZRCui80AUubFbn/k/VllACnzrLYMwnUeGRCqnR2jDwJV1Fe7te0TV2PtzNd30z2+uMoEWuF2UFRNf1c7nZQzclw58nrpxYelFx8WN6adWclTACgo60vdX3kPC6x+VXnqjlgGN1Ijzn25+uQ490V4agUkpQO3ljfGoj6jjFKmSFvnG386N3+7RpmZtgopc/8HU06t5TIqEsk0KrVOZRu+x6pMeeDGxkqfw1So1qkKFWS2jgwLJ/r2oMr81DhPlISDGwfiqr7Hr6+16TIySAFQYLu6nprokO8dW3+F45liPXhl+5Y8td8Cszskb+uFMY94OyzeaBHWMznjhHiPU/RjWPIhKJ6rwgsJ50GRaKdP8kv075j/n9uEKvhEMn7ZL5k2UYRU2iU79dRT1Kz2AcDjPsmsTTDZLt4JiZedAgP9VC4XM0BmD0w8+3Z1+/HzHyfvXrUpqXEBSCxNowv3V949Wn422ueUp9kBuugdVmVynGet2jr0cvZav2/ieWp1E9ar2KdekF/WMjo/ufwmtbwyFm9U0XiAvDZ4d3Vu9fXk7d6WKz8caM5kw8mJR2rxjC7cf7qVerI8HLbLyPayjkzPfhG8/XJudtBqH5969uqLYBnPk/HwqbFceAZA1z6zMxLqGJx9lVrZuDXSqmaeCuSyw4YTwzAuvzAMk7juPZofNtJMpjcTkAdurD/xavdMEudkzrQ7JDsB0ZAeL1Hh4z7xW5dASjz8X2WX/NQqbFDiFo1gqks8VwKdB0JQLMNNJaLtoMgnw00y3JQHiPw6fMpksw+VueUVdhbipTrhQo9krmSfYa64f/Xh1FC5Ua8x13VOvJiMVRFPbAssifUH9xKV5mK9rXNofutai5JpuWxlgtIrU2vv5tffP97YXlh7N7/2bn75y4q9Iy5zOXlgHXr5cGmms7a0qMQd+vXW7FgjfJoVsNcLgKhqbHP23pC93FJU1p6cfzParCBwiipHXj2aGauxmI2O5OjjTX5l8uDkwCMsia8/mhm3l5oNVZGx5dfDjUQ2EOvI9LOZ5tJLgek3dwfdxqY7s89u8fubE8+kMmfvj7rKzIbqgevf/0T6i2EYhx12nKQys3kmm8DU//zRWGNGu5BvATAHUttD9Xs6z/lR5scGATmOCg2ijwGhjZgDhzvFd+gUByab+KOLmgNhP8u6z+SfM1ntx32SRStFqLNOvOXYQ252M9iubk4POzISiBENsxWroYZMXWh5ftzNXMuiTJFCrTdqq0cmN1Jek1GrN2qLVJL9lDl/3UPyI3DemV8cIdKWmAMpznoZAJbED7NXagllmgKp7WE3fF4UALzq2pt9lMmN0zr0kg2PsfMBZR/DMHNsnbQPrCPT81cMAFgGN0ab80B+5/jGlIOe1hic6Qc58Uwq8wt/IWmhYnjz28t28pjDDjtOUpnZfpGmyi+/+naoOh0kcwyAxnt/51rLnnTk50eZbx2U6kCeIFAq0BLKvB6Q/C4i+dhL/f/sFjCqyFWZrPbjPsm3dN7a9OiXIT3jQGIbmVx7Oz0zO3R5yFNjJHMFAFDRu7SzsE7MfnAy3F686WWitWxlkja5zmfUSL6FURahLigqZXWjr5aI3jnrlVclRx+8SD0nIK3vpEZdhBorepd2lXzQ+0yuaJYdz659TfcSyQObMr9xCPfEfhle58QzqcyrTVTOJ3N8nfQXhqCc7cWCk4pms/wisZVf+ZFfmWOtVPpSsvw5VCbTSADg1wOSSTMRr9JR6+6nOc6ZjDJ3LRD3mTkpE8MwcaHN7hsIjc7dX3v7pZ/ImwqVuZn0ELOfnnhVUTlOoR7YejbPeQZe+kG6MpnzxIjAUi8Q1sWevh7vqTMQYBwjL05UmXvxsPT4QygzJ555lMlthwVnhjIZv8iDsqFXzFSc8REAWt/0zrWW3UY/P/lm4QoNPWcybgOAD3eKvzFSg6tUipfS2fJhz9YK3+/dNQEA9LZKFqzEvSgADU7JKzsVnXLZz2nOBAAXSgskdBimCT5ZnOgk7vfMgdT7yy4qC5ZYWWwo3A1sgDbnFSBhgbpAsieu5lAme72gsPerjdkGYhUNANw2vEkrE94OHTyaJRuCdWThwMMeJeaqzFx55lImtx12nPzK1Pc+XbjlY11CB6Ay8uRtjO5sJG/ne84EVXbJTruwRYWbCwV3OyWLhOqoHiMTrkXEYzo4oxZLqX5cYhN/7BT5CnGrXvhdWHKbvkc9JmXmub56P30zXG4yqA3VvonN2WEHkXMdrsQ8nBmzlxYXlXnjD3+60aHdHV8krSPrL5NNZrg7oi6U0sJm7fFwxJH5rq3uLDxMpv+6FocS2OsFAmf8+62b/Y1GvdnaND72+EdamekrQENji/vcZ+auTEFJfO3RzHgNvQJ0pYFeAcq8z+SLZgHIjWduZXLaYcXJr0yBbXxm5RtHPksQLrCO3F+bdu796DwrE3ZTER6qF2+GJDtBcapGoE1bswYAd9nFm2G4fcLsjgAB7q8TvewRbwfEU2U4uWqPYdixKBPmXNO1RCefz61tL6y+2rNrIrV4xhanV96llp+NxRqVe3AKDb7Jr5ffPd7YWdx42qGnmpZTmXmu2OLW7GRPei5sVmVCfjjqVdiHxx/9+HD11d2b4Yb4CnPfReyaPJ9bfTN1p7/t6sG+acAWjfPhGV24//1W6snTq+m7JrkoM1eeuZS5j50snPzKBEDTdPf1zM0urXiPOAUKZ9/cmzt95cwKyLmaM5kZBh2cPgPU7gi5f0O93qul5/aTw/Op6j20R0BiaZt4kVp85CV27zAMUzTcmvz+9VfxOuZXxhjj52TOZPxBB6fPACB3R8i1K+pVzb+LcywgP1W9RwEPgFhZ3majAx9ZeZOtKD/jW0GkfaTMo/CMrkUMnBQDSJknxSyyixg4CgNImUdhD12LGDgpBpAyT4pZZBcxcBQGkDKPwh66FjFwUgz8f9BowlEVPPz3AAAAAElFTkSuQmCC;" vertex="1" parent="1">
          <mxGeometry x="819" y="702" width="176.28" height="89" as="geometry" />
        </mxCell>
        <mxCell id="_SEhdjt_zC7VoHPrVBOt-15" value="" style="shape=image;verticalLabelPosition=bottom;labelBackgroundColor=default;verticalAlign=top;aspect=fixed;imageAspect=0;image=data:image/png,iVBORw0KGgoAAAANSUhEUgAAAYcAAABaCAIAAADcqw1sAAAdjUlEQVR4Ae1d+VMbSZbuvyerVKoagQSEBBJCAeISEocAEdyXEEKcBgMe0+Y2Y3z0gZu2jS0bjN24GxsatzE2tAGPe7o3ZmJ3Zzdid2JiI3b2h92N2OmNnememT16I+tSSVUpkCxxqJNQEKVU1cv3vsz6KvMpld87BP7DCGAEMAInCYF3TpIz2BeMAEYAI0BgVsKdACOAEThZCGBWOlntgb3BCGAEMCvhPoARwAicLAQwK52s9sDeYAQwApiVcB/ACGAEThYCmJVOVnucQG+odJdn4ravBJxA37BLJxYBY9u1saG2rKRouo0yK5U66T2X6sCAAQDlJfRmL/PNwE++7lVXA6QHAGjmHrTvth5s88BKw5wAyh1/eOZolLgR23rl9sM4E9FHvln3D6+98LVfcZ4OwIgqj1VcADBXFtu/8dEob5n8wcsrG1MDbosu4BXqZHm5Y/zFg6evHzx9vbxxw6UOtQCAtrDfP7+6C094fMUhaTi5qVNUAjJcHd5KQ6KEEx3yamOle/rRncWrZWlkpBbeKS0tlV9zWFZiqPv99CUzmZlMmpJIBt0MsbqL5K5KS+SsEdt65faltb/NcVKKJtekyS21/VMwK6HKYxVXeFYCdEn//ReTLSYS3bLho1brMvTpJr199ENFVkrxzWys9lfkGNJNekOqOtpawvtw9J9iVuIwB0BrH1v3X/OkRNiyAVYCjGqikX7Vy3zeoOqrCIyVAEV2u9TPe5nXXfSdElL6BAA66nG/uk0V+gyU9wPuLtobynq20vLdy6Zfz2YWCFcBjW76cvW/vvT8abP+9Ui6meStAW3q7JXqf950/3Gz4atxY45Q3jLd8u3VvA9vNf5xu/V3t21ePTwfuEq+22/nhxvcoGPRmgkAf/cOmtcftnz3svnXs5mFlGA/knpR9uWRiiVAoxu7VPW755z/JqsYLyIuGEVW3m+CWYlvXVl5uLgQ9hX9kbISAKRzsOb7R7YqYVDDVH94b3HUIiDPO6Nz+q59duvx3v0nz+feH7OnCXgyefUTS/Orr+6tfDbR70qRXAVMA+8pshKiXMTwMAeGsh5vhaOg1ufz9bbWOY2M4A+VmlvubvP1+7wd1fZMjXBjAMZor/V1+Ppaa4vynV0d5WaIPNAVtZx1WfixfFpJp48thx+h7RTVdLT7Bjo7e2C9GrYfmqp83We7ewbFV1eDLczTOkyABSPPFibPuq898T/egjinCnEhcAZK7QKAqe3m/mSvZ+jmM//qF1envCahcYEmr2Fiaf7Rtv/hymivU8fiw50/3uP56cKmf3Xj8nhzuthvlexDfBD+8L0lxTez/rDVyDvPF2pcZ5deLnzQlS40SggOPCsBAKpdzM/bqEY9WWCmbvsYbgYHAChxMl82UzVpZF6G6noHfSeXRd9APe1j3pyhv+5nvupj3vQxb7rULkQdbKvDGdzvl+xjDp3Tlf/LrbbXHjhrAIBsmGj6T3+BL19bWmrZWnP/vJ0v77na+u2dwoFiXYkja/OJe7+Nn2W0TLd8v1Fxo1pXUmi8v+z+9ppRC8mHKbIk29vL/rhZds6SbLck2zPUlMBK/7FUdMGhc1ZYv9r0fN3BRFEvyn4ImuJbAMjasYY/rziGi7QlJVlba22/6tJw9aLigp/K2IdvRVk5x0qKcSnaR/sTmMHR+QW/2albKAyMt3POPrk3VSsGxR1kn3189/qIzWLOsFZ6rz2dGyph41LlnVu//eE5hzXbbPeOLG5PNqWJF8pZCeRfuL72anF99/7G3tLaq8W1V4srl4rQ/Uc0JT8wlPX42httpjRdWlZxU5+30sK2O6kv6fTWlxhTU1LS8yrb+mpyuHZXpZd1dbZUmtNSUzNLazx94VkJAGU7BEGkOny+htKMFK02NdNW29VanAFxoDRarU6bU+vz1mZpdfA4iY5upFkw8uzug5ve8vzM3Lqej7cXpmoZ2J+ROCPaBbLSwsfTNTZrVnHv5MrujIf1E1C5w+v3bk47861ZJWemVl6M1qaw7ciePz9RXWjNKh28+OmXE42pUbc7a9Dq8++NVAU6FSzUtU483l+6ez4L0eIiK5EX2pkbOSzjAFBXxY+VACBHvfR7Jp7qcuz0m2r4PAEqMktH5pio9X76bBqZo4Mv8XEk7zrcXfTXvfDOJAjCe6n19xcNrNPa26vudRdv3zFU95f3jPLLGyaavp2B5xME0TLd8pcPTBQbj7qu7M+f28R8lnyGxdX7qy7YIwmCqB5t/P4qtA9AxPXCq2R5K86s/D8AyfMrnlfN/LM3u8620ZWmkrWBNC5oX8Y+nGV5OSquEE9E+yh/xLESUKf4H7n/4ZxOOo2yvbt5ayR0gm8f27oxWsHhL1YHgNXn3x4q49vR1LOyOF0X+FQ2JgLq1HSzxVg6Prfhb82xGM0WY6Y+ujGFoayn05XN3fkqc63P40yDd2+q3d1XLjyidbb2zkoL1+62lrPVOWr2mDRVHMhKynYIgjCW93qcJnmbQsuxyCsVjDxbvNjA2Ve53ltcHs+BcSFxRrQLZJnZDshEBEHkDK4tTteT0I7Fe3tvtA7iQBCEdWjdP+5iMYHn/6ydv9eKRrduvevkzkHYR/rDXQVARuv8/mRTMvdW/E9p07VMEFWJHxEEEWCliz76Wibfq8S8EgDkRR/zizPsaIgdE31dpxJ7ZKQzODHbXTve9N0VjrNTH260/8+u58+v4Osvu+0/fGTmbozM8oLXj5r/sMOW77Vz53OsJDIUMOgnfYYc4W6XswZ394r1Fg7UcvYBiLhe2GYRsFLqw40A20oRR8UF7UfISvK4CIJQtM/Gq+APx0r/u+v5867nh62SDmF6yzlsu/BczkqMfXxubefGzYWRd0cayiw0Cz4ARX0P9pfW2VEPHATtLc+2inesfKzE2UeVS+E68BjO4MpMvEGNMSfXlATvOkNJ+9nOrn5fJ3x1dp7tqraqYHmao22gwsz3c0PJATM4lB2CIKj08tbOM57m5sqy0lxjinhTxJCVFi6U83Gllda6y/XQfyTOiHaBLDPRmMTZyeh8sHzVo+btBJ4isJxtL24GN1bPz0usw+v+iWruWoR9pD+85ywrTTVrubeH/H8oVpqz8qMhOCaSfNUXI1Zq3XSzcy5u5pVOwXal0te33N8Mppdnw4+GZpsVWSkkSDlrhGWlyOqNCSuFiSsmrISyH56V/vZcqj0/+/XL1q16/uHJAVs4sik+KqVQ0wa70z3YM3Fnfm3nUnsW9BzeLVvnG9hRj5n9r+fvBPipbKzEWUOVS+s68FjKSuLJLJv0VmSzcyhuJqXhxkdRsJKCHa4iKslgznUUl7e0dZ6pz9cFao/RWElkpYDlsDgrtUvMWIkgCCX74dqd7RhG9439yaZAZxBjCXMAWYkkSXamhpzBfWThny0aDZkfY1bS3l71vGjkx3LJeq0zg2WljNy/368cY+sCAHgvtR6KlZyO/1JaGYCYwUVWL4RYZh+FLADajyUzOGuzfecMnMEBdFzQvjn3HxWz3bJy1AwOZR/pj7AyAADgGKz971WbSzJcMvc9Wrrsls7pACApjZYRMqAZXQ+Xr3nZfIfV5999txq2Hey+adlZhsCgHRjjnO0Wxkpic7AzuP7KLL5fUZqUlCSOlbSIGRyT13C2Lo/POZrK+9pKuAxDqt2taIdUUTQlZPS1Nk9XbZ4IFMiofPuVATDbLYyVJHEp44xuF/kMru7AGZx8rIS2r+yPxGHHmYc7Q87QyRqpTqIlPU08nzt4x263s5QWlO32B2e799uoJj1pNaje9zLLBTxDwasi/A5OnHFIZnAw2/39Q/uATVvsMH++KmSFqYyNLfffXDBWZOua3fav1lsOxUqWvN/u1S1V6uyW5CI9y27sOqlvl+0XHFo+2+0LZLsjqhfGK7Mfgqb4FmaXxxu5bHdpqeXletsvO9lsNzouaF+Tubfb8tytyzNpck1MqtBs8nKOlRTiQthH+iOwEqydMaw/bfsr1k8uEJV9+ubqRxXJkhYHSdVXdm/M9tpystKzSt3XthZGK9heDrOwd29OOfOzMwtbh+9+OeMJ5AcB0zy+/ux8vRWuAEg3aARSQ42VACBdhdS7uWSSMDcXgZUfIMZKMEvta64wp6Xo9Fanu78uD7IkAKr0sm6fkO2uFrLdBEHobN5Od3WWPjXVVNLg63Yauf6DsqPOrhnwVNsyUnTJOmNBba/XaQKCt0DraOlqLzamwmw3O0bj3I4oLgQrKeMMkO0CWWlhHma7zcW9k5+I2W5V7vDavZvTZUK2+0JNINutxErRtDtBEKqC8fm1Gy5JF4KtoG0c/XRvcWHQLCAW0qyBVZTiyoAvGqkBl2RlgJrsqaK3epj9LtpfpjIKzwdo/a1ZCRpJ0s1crfm3l57vNuvfjAVWAFiqbN88bvl+p+W3161jEw2HYiVA+8ar/33H88NrL3c+d/fun7M8W2n5/mXz381mFYm3eoT1sn061H4ImtK3IEk3OVv9L7KVAai4WPuk0+f87XPP/+23/7BfLw5R4Xf2weVh4kLZV/RHzHZznlu8lX/aLPUJw2EAMurff3FztsMoWdipMjUNzD25s7a39HgzaGWAJq9havnG6iv/ymdTQ7Vp0n4CqCz33Acrr+5v7C9vPPIIaR0kK6kp/xnmiSP0ASuFVzxWZCUIpjott6LNw64MqCm2aAR/AGNy1HErA+z5zk7uOzh4vkqX7Wx1d/T52tsr89MDAx+EHZU2p7Te19E50Onraa3lVwZwXgHAGEtaPb6B7p5BcYUB61IEcSmyEjSCwFmxXbg80US3e1BYGZAZsjLg023/w0djwSsD5KwE+SXydleluvrvvHyv3yZNurEhVA3d316Y6844kJXEZsYHh0cAFBX+js3Tc9l69r/zrDAWOLydE3smYPJarj31L99rZVeEHI2fqkz1Xj89EPyAjUfVYrY7HsblNo8sLrFqnpUa+e++xfIjOEituTz36Ysrw5U64Xlw+EoDY6XDX4PPFBEANF3AJekD/zXcgjTxnNN+AACdZmuxCwOcIwgnv4T+qlmlRzxIY+jAEbPSkcUlQiSwUmTJZvHytznQ2ertmcnRrdXCrPQ2yONrY48AAGRPM3Pbeqjp21tWf5SsdJRxibAcIyuJPkRxgFkpCtDwJRgBjEAcEcCsFEdwsWmMAEYgCgQwK0UBGr4EI4ARiCMCmJXiCC42jRHACESBAGalKEDDl2AEMAJxRACzUhzBxaYxAhiBKBDArBQFaPgSjABGII4IYFaKI7jYNEYAIxAFAkfKSgCA4iL6vktljP+y3SiwwJccMQIAULmdN2cmWtJwfzhi6E92dUfMSmS9i9l2U3nBvfDwWinRgQmM1F6XujS40uhMhVwVKw0Pbg2u+KvIkFpi9RaUzPhXpqXgx7Zeuf3wngOgKR1bX/j4LOq34+Evx58mKgL8rm/HGx44tFZKdH7Gj5VipeERW3ZAoSRnjdjWK7eP8gSXYwTCIHB0rNRQDWXjoHKch7IED1si2RGFHHYzC3bVXBu930OvuFRZwi+SWS0WerOb3vPRNx0k99tOkKne7+fr5WtvocL/7FNRKwJuv4DWckDuyIHYg1HeHhw7KGtLIOoFyYVNE4tzKy/9K6tTw7V6AQdFbQxQNuvf2Oek2XiBtuu9KXCnVLj/zli3e+jmpn/16eXxlgxhwwNUvIr1ouzLIxVLyqZf8Z4sDEp3tAAam/vSpwurL+au9DZe2OB2PguHj5JWB0EQijgc0I4HaW+IzuODuCJwdKykYYApmcwuVEtZCUSslQJZabuV8hrIfBO11M3cyYU/4wSALC6jX7epm/Rkvknl72Ju5LDlFMjWkTm56r0utZuVPMhJAuJ+0orIIrQikNoSsHYZ+0Sq4cHddQvzUzW23KyyoRlBWwKlaQGAumRqa+HDEactL7Ow7fziS1GLQlkbg9HDHfubPvCvvFfJ7WBr0LH7WENWusVpWkCti1fTLdwejMrxouoFCPuKCHOFtM6oTzcZvQvLElYCgLQMrC7dvVJVkJdTPT69vCVlpQWZ9gbMTClpdXCsFJFGCGzHg7Q3woSDP4ohAkfHSnxfzAlmpYi1UiArLRfwPyh3VdLbFTwrnffwO/wSBGEvo/dc/Dmwt0WSV4pCy0GBlSLU8OBY6ZKX16KwC9oSYTQtpJ0g79zn4m6qitoY3MnyGRZX74xHz52QM7h2l5VaiqJeiLMsbyV1UvFYXf9RMCult8zvX3RDtR8A1BU/25Wyklx7A6XVwbFSRBohnHvhtTcUQ8CFMUfgmFmJiyfSGdwtViGKIAiHk9mvYpWgoBZLQKPFUkQHabFEwkpRaDnIWYmPSzaGQrUfxw5itlvUlgijaZFScn7i9lP/E1ZWZH1f1KKQ7mEIBG0M3h8Za4TUK9G6QGpXoOqNESvldd7bOy8oceX9NGgGh8BHQauDn8EJ+16LOITBE9U0uPzoEcCspIB5pFoOcWYlBe0QQFUOPXox3V2ZxU7HKsafKrJSSGzysUxYVoqs3lixUtdi7FlJxCG8Fot4Gj44XgQgK5FkYLITb2/o4BkcV11MxkrhZ3C7h1sZEJ2WQxQaHiEzhRB2kIyVlDUkgKHvysZCDaciDUj76NahWKn44h2llQGIGZyCZkmYeiEryewf2J1kMziY55pihXoAIEundqQzOKWxkrLaYshYSXSDnZkqxCWeEF57QzwNH8QVAV7jJK51sDkCkJJE8tnudrUzGR7rxK97IlAlgHklpRkc4LLdjUK2++PsANUCHbV2hp4yQVW7bE2gXB41WitCWVuCsxCxhofOPRmsaIxmJeV6gco1/On27Nlai9laUD89df/5oVjJPPjB5590l+bBzHcapzDOamB8PA0VnGG2e3e6NZDtlmuWhKkXtrLMvhxhHjGgTjaY+Gy3f7wAap9kJEH5RFXhyBf35s/lJFNMdvfY8suDWElZqwPNSsp48l4dpL2BCgeXxxaBI1pFyWnwct/N89/Q99PTBl7S5+3HSvCWoMjuKnZlQCd9S1gZwPc2QFY76a1euESAy0OFATEKLQcQqYZHUvXQcpDGA4qVYFwITYtU5+j0ved3H2++P9tbM7x6KFYCqY7hezce7z14+po7n6t3otf704XNu6tfXB53G8VHRYT1ss+eUPsonLn8TtBKhY2NHlbUC+hrh/w7y5/v3Vu83DP9RXhW4vGZWJoP1upAsVIYPNmPDtDeQIWDy2OLwBGxUmydxtZOCwL8Cok1QekbHnxYLhAfKgpAqrUGPUOBgpFncklx1FW4PGEQwKyUME15EgMB3AoJboUU/z+dCV5DG+I3ECZ3BrOz+9buTFt6yAn4bcIjgFkp4Zv4lAUIQHH/ClyGfn9t8/1L3RaJQOYpiwS7Gy0CmJWiRQ5fhxHACMQHAcxK8cEVW8UIYASiRQCzUrTI4eswAhiB+CAQd1bS6XTx8RxbxQhgBBITAcxKidmuOCqMwOlFALPS6W077DlGIDERwKyUmO2Ko8IInF4EMCud3rbDnmMEEhMBzEqJ2a44KozA6UUAs9LpbbsE9Fxhn/V+dTfD/4o7AQPGISkhgFlJCRVcdkwIAIo0srvc9Dcy60643Y0pGSQJQgnH5BSu9qgRSBxWilTTQlHLhNvZY7LXM3TzmX/1i6tTXpNa2G5FSUuDO19Zm0Tn9F377NbjvftPns+9P2ZPE+wgNEtQLY/w09JxZ3+0luKuEneJg9txMNaaUf/1lW1W+6ROL/xAH12eVz+xNL/66t7KZxP9rhSBAhTrhfYRcaH8j6IcALKtjnlsD9oJy1nB7FRRQw30Xi+90URVCTvevdvOK0dId0yGflJkt0v9vJd53UXfKSENYX8SHIWT+JL4IZBQrBSRpgVCy4TfBa3GZs0q7p1c2Z3xwB3+UVoaHCvJtTcIgkDYV9YOCdPACDvKrASAyjr0+N7CTEWBNbOofWRxZ8ZjYv1HluedW7/94TmHNdts944sbk82pXHOKNaLigvlPwBF3YvSbUxeLc60hNeYYb1VZqV9n3rETObqyWk3vVOt0kDlKFKRlQAAJU7my2aqJo3My1Bd76Dv5OJpIKqVTlx5QrFSRJoWCC0TyEqzHbzWSM7g2uJ0PQl7v/JOrBwrybU3oM7K2NaN0Qoq+BF9SO0QaTdB2EGxUlb7wt5YLc1ZSHNdGPbYWf9R5VafP7Abv6lnZXG6jrtWsV5UXFKHpccA0FqjBW59Kb70SdITFI9RY6U3NSqO0ags9RsfZQ/HSuSol37PxDNRjp1+Uw1VJ/DfqUAgoViJ27cQPmwFbY8wmhYILRPIShON/J0DNT+ueuDGraCo70Hg7pVogcDz5ftJEwSBsI/UDkF1F4QdFCsF+SnaDPE/uHx/aV0YzqzvLc+2cne+Yr2ouESDMTlAsdJOBc8sIEnly1cZw7LSRR/zizPMmz7+JdW8iYmT2Ej8EEhMVhLxYu9GBa0O7gQlLZOYsRJBEEr2i/oeIP0R3Q45ULITQ1ZC+iOvF4VbiMPi29jO4ERWkthHzeDIiz5mzgp3audfSXgGJ8J20g8SnpUQGiGApDRaRsgEZ3Q9XL7mZeCzVz6DqztwBicfK0WnlUIQhEz7BOVnatPc/sU2Ts2RLJ54OT9cxGZk4ExzrJbh+p2+dnrU5xD9VyqPFB9lf1DdPLYzOCVWAn3NzBK34TcANS5m0wlz5ADAGdxHFp6JNBoyH7MSqpFOXnnCs5KypgVaywSy0sL8dI3Nai7unfxEzHYra2lwLKbESknVV3ZvzPbacrLSs0rd17YWRitYdlD2h+sYQEH7RNkOQRCZ3SuL/suVBVZL+fnZ1S8GSyETwWz38JNFNttttne8e39nps0Yvjzv3LqClglQrheFW2w79oEzOGl1uXb6jVftNpAFZuqTXuYqm0vist37bVSTnrQaVO97mWWWuaQX4uMTi0CCsxK8IRFaHYpaJhzLTHS7B4WVAZkhKwOCtTRQrEQQhKL9MP7Aj2TaJ+HsqC1Vo3c/erTtf/DJSIcjSUirA01e7fi96ys7oSsD0OUNU8s3Vl/5Vz6bGqpNE1YGoPxHlcewi0fESkBFtleqn3XTez76eiGpE3FQkz1V9FYPs99F+8tURiGuGPqJTcUJgcRhpZgAxLNSI9RKw38YAYzAsSCAWSkIdoGVDv72Ougy/AYjgBGIHQKYlYKwxKwUBAd+gxE4DgQwKx0H6rhOjABGAI0AZiU0NvgTjABG4DgQwKx0HKjjOjECGAE0ApiV0NjgTzACGIHjQACz0nGgjuvECGAE0AhgVkJjgz/BCGAEjgMBzErHgTquEyOAEUAjgFkJjQ3+BCOAETgOBDArHQfquE6MAEYAjcCPmpWAkdrrUpcKv+dEo4Q/wQhgBI4OgXeSk5PjWptOp4ur/bcxjlnpbdDD12IE4oTAO6WlpSQZJCYR25qOjJUUNTDg9iBKWhcKumMtlB694ypBEIr2ASCH3cyCXTXXRu/30CsuVdZBO2YkqhZLbLsNtvZjRgCyUlzjP0pWUtLAUNa6ABTI1pE5ueq9LrWb20Q1CagOYiUl+5CVtlspr4HMN1FL3cyd3AMovmDkWUJqscS1F2HjPyoEEoqVFDUwwmhdyGdwKCUfbqykaH/YzSwX8EzkqqS3Kw5mpYTUYvlR3TY42LgikFCsJO7rLNXACKN1ESkrKdofdjO3cvj9oR1OZr/qAIUfOIO7UM41aiJpscS1m2LjPyoEEpOVxCYEIJzWRdSsJLX/NqwksRNO+0SuNRKyD9TbKETFUItFDAcfYATeBoHEZ6UwWhfASO0GrwwAQFkzg892C3pkIuJctjvqsZLETqRaI8esxSJ6jg8wAjFHIOFZCWa7UVoXQEetnaGnTFAyLFvD54MUNTPiz0rK2icoTRFurHRcWiwx74XYIEZAikCCsxJcGYDWugCArHbSW73MNwM/EfNBKM0MuDIgbmOlMNonipoi/AzumLRYpB0IH2MEYo7Aj3ptd8zRPDKDQl4Ja7EcGeS4oqNDALPS0WEdw5oEVsJaLDEEFZs6KQhgVjopLRGRH5iVIoILn3y6EMCsdLraC3uLEUh8BDArJX4b4wgxAqcLAcxKp6u9sLcYgcRH4P8BkhEEJz47m1oAAAAASUVORK5CYII=;" vertex="1" parent="1">
          <mxGeometry x="597" y="741.08" width="216.89" height="49.92" as="geometry" />
        </mxCell>
        <mxCell id="_SEhdjt_zC7VoHPrVBOt-16" value="ArgParse" style="whiteSpace=wrap;html=1;fillColor=#e1d5e7;strokeColor=#9673a6;" vertex="1" parent="1">
          <mxGeometry x="733" y="705" width="63" height="22" as="geometry" />
        </mxCell>
        <mxCell id="_SEhdjt_zC7VoHPrVBOt-17" style="edgeStyle=orthogonalEdgeStyle;rounded=0;orthogonalLoop=1;jettySize=auto;html=1;exitX=0.5;exitY=1;exitDx=0;exitDy=0;entryX=0.5;entryY=0;entryDx=0;entryDy=0;fontSize=12;startSize=8;endSize=8;" edge="1" parent="1" source="_SEhdjt_zC7VoHPrVBOt-1" target="_SEhdjt_zC7VoHPrVBOt-16">
          <mxGeometry relative="1" as="geometry">
            <Array as="points">
              <mxPoint x="886" y="682" />
              <mxPoint x="765" y="682" />
            </Array>
          </mxGeometry>
        </mxCell>
        <mxCell id="_SEhdjt_zC7VoHPrVBOt-18" style="edgeStyle=none;curved=1;rounded=0;orthogonalLoop=1;jettySize=auto;html=1;exitX=0.5;exitY=1;exitDx=0;exitDy=0;entryX=0.771;entryY=0.037;entryDx=0;entryDy=0;entryPerimeter=0;fontSize=12;startSize=8;endSize=8;" edge="1" parent="1" source="_SEhdjt_zC7VoHPrVBOt-16" target="_SEhdjt_zC7VoHPrVBOt-15">
          <mxGeometry relative="1" as="geometry" />
        </mxCell>
        <mxCell id="_SEhdjt_zC7VoHPrVBOt-19" style="edgeStyle=none;curved=1;rounded=0;orthogonalLoop=1;jettySize=auto;html=1;exitX=1;exitY=0.5;exitDx=0;exitDy=0;entryX=-0.009;entryY=0.16;entryDx=0;entryDy=0;entryPerimeter=0;fontSize=12;startSize=8;endSize=8;" edge="1" parent="1" source="_SEhdjt_zC7VoHPrVBOt-16" target="_SEhdjt_zC7VoHPrVBOt-12">
          <mxGeometry relative="1" as="geometry" />
        </mxCell>
      </root>
    </mxGraphModel>
  </diagram>
</mxfile>
